<svg width="21" height="20" viewBox="0 0 21 20" fill="none" xmlns="http://www.w3.org/2000/svg">
<path fill-rule="evenodd" clip-rule="evenodd" d="M2.33337 7.33325C2.33337 5.12411 4.12424 3.33325 6.33337 3.33325H10C12.2092 3.33325 14 5.12411 14 7.33325V12.6666C14 14.8757 12.2092 16.6666 10 16.6666H6.33338C4.12424 16.6666 2.33337 14.8757 2.33337 12.6666V7.33325ZM5.87504 9.99992C5.87504 9.65474 6.15486 9.37492 6.50004 9.37492H9.83337C10.1786 9.37492 10.4584 9.65474 10.4584 9.99992C10.4584 10.3451 10.1786 10.6249 9.83337 10.6249H6.50004C6.15486 10.6249 5.87504 10.3451 5.87504 9.99992ZM15.541 12.9769L15.25 12.6665V7.3332L15.541 7.02287C16.781 5.70017 19 6.57768 19 8.39076V11.609C19 13.422 16.781 14.2996 15.541 12.9769Z" fill="#30E0A1"/>
</svg>
