<svg width="20" height="20" viewBox="0 0 20 20" fill="none" xmlns="http://www.w3.org/2000/svg">
<path fill-rule="evenodd" clip-rule="evenodd" d="M16.0003 17.3H4.0003C2.89574 17.3 2.00031 16.4045 2.00031 15.3V7.09995C2.00031 5.99538 2.89574 5.09995 4.0003 5.09995H6.0003L7.15913 3.11339C7.30847 2.85738 7.58256 2.69995 7.87895 2.69995H12.1217C12.4181 2.69995 12.6921 2.85738 12.8415 3.11339L14.0003 5.09995H16.0003C17.1049 5.09995 18.0003 5.99538 18.0003 7.09995V15.3C18.0003 16.4045 17.1049 17.3 16.0003 17.3ZM10.0003 13.7C11.6572 13.7 13.0003 12.3568 13.0003 10.7C13.0003 9.0431 11.6572 7.69995 10.0003 7.69995C8.34345 7.69995 7.00031 9.0431 7.00031 10.7C7.00031 12.3568 8.34345 13.7 10.0003 13.7Z" fill="#EF6820"/>
</svg>
