<svg width="20" height="20" viewBox="0 0 20 20" fill="none" xmlns="http://www.w3.org/2000/svg">
<path d="M9.99996 13.3333C11.3807 13.3333 12.5 12.214 12.5 10.8333C12.5 9.45262 11.3807 8.33333 9.99996 8.33333C8.61925 8.33333 7.49996 9.45262 7.49996 10.8333C7.49996 12.214 8.61925 13.3333 9.99996 13.3333Z" fill="#0D121C"/>
<path d="M16.6666 4.16667H14.025L12.9916 3.04167C12.6833 2.7 12.2333 2.5 11.7666 2.5H8.23329C7.76663 2.5 7.31663 2.7 6.99996 3.04167L5.97496 4.16667H3.33329C2.41663 4.16667 1.66663 4.91667 1.66663 5.83333V15.8333C1.66663 16.75 2.41663 17.5 3.33329 17.5H16.6666C17.5833 17.5 18.3333 16.75 18.3333 15.8333V5.83333C18.3333 4.91667 17.5833 4.16667 16.6666 4.16667ZM9.99996 15C7.69996 15 5.83329 13.1333 5.83329 10.8333C5.83329 8.53333 7.69996 6.66667 9.99996 6.66667C12.3 6.66667 14.1666 8.53333 14.1666 10.8333C14.1666 13.1333 12.3 15 9.99996 15Z" fill="#0D121C"/>
</svg>
