<svg width="21" height="20" viewBox="0 0 21 20" fill="none" xmlns="http://www.w3.org/2000/svg">
<path d="M4.56655 9.16667C4.56655 5.48477 7.55107 2.5 11.2327 2.5C14.9142 2.5 17.8988 5.48477 17.8988 9.16667C17.8988 10.125 17.6966 11.0361 17.3325 11.8597L17.9 15.8327L14.4955 14.9815C13.531 15.5239 12.418 15.8333 11.2327 15.8333M2.90081 13.3333C2.90081 13.9323 3.02718 14.5018 3.25469 15.0165L2.90002 17.4996L5.02765 16.9676C5.63038 17.3066 6.32598 17.5 7.06673 17.5C9.36751 17.5 11.2327 15.6345 11.2327 13.3333C11.2327 11.0321 9.36751 9.16667 7.06673 9.16667C4.76596 9.16667 2.90081 11.0321 2.90081 13.3333Z" stroke="#4D5761" stroke-width="2" stroke-linecap="round" stroke-linejoin="round"/>
</svg>
