<svg width="20" height="20" viewBox="0 0 20 20" fill="none" xmlns="http://www.w3.org/2000/svg">
<path d="M12.9166 9.16675C13.607 9.16675 14.1666 8.6071 14.1666 7.91675C14.1666 7.22639 13.607 6.66675 12.9166 6.66675C12.2263 6.66675 11.6666 7.22639 11.6666 7.91675C11.6666 8.6071 12.2263 9.16675 12.9166 9.16675Z" fill="#4D5761"/>
<path d="M7.08329 9.16675C7.77365 9.16675 8.33329 8.6071 8.33329 7.91675C8.33329 7.22639 7.77365 6.66675 7.08329 6.66675C6.39294 6.66675 5.83329 7.22639 5.83329 7.91675C5.83329 8.6071 6.39294 9.16675 7.08329 9.16675Z" fill="#4D5761"/>
<path d="M9.99996 13.3334C8.76663 13.3334 7.70829 12.6584 7.12496 11.6667H5.73329C6.39996 13.3751 8.05829 14.5834 9.99996 14.5834C11.9416 14.5834 13.6 13.3751 14.2666 11.6667H12.875C12.3 12.6584 11.2333 13.3334 9.99996 13.3334ZM9.99163 1.66675C5.39163 1.66675 1.66663 5.40008 1.66663 10.0001C1.66663 14.6001 5.39163 18.3334 9.99163 18.3334C14.6 18.3334 18.3333 14.6001 18.3333 10.0001C18.3333 5.40008 14.6 1.66675 9.99163 1.66675ZM9.99996 16.6667C6.31663 16.6667 3.33329 13.6834 3.33329 10.0001C3.33329 6.31675 6.31663 3.33341 9.99996 3.33341C13.6833 3.33341 16.6666 6.31675 16.6666 10.0001C16.6666 13.6834 13.6833 16.6667 9.99996 16.6667Z" fill="#4D5761"/>
</svg>
