<svg width="20" height="20" viewBox="0 0 20 20" fill="none" xmlns="http://www.w3.org/2000/svg">
<path fill-rule="evenodd" clip-rule="evenodd" d="M8.88264 2.5591C9.58646 2.20719 10.4149 2.20719 11.1187 2.5591L16.0007 5.00008V11.6901C16.0007 14.0001 13.8653 15.5594 10.0007 18.0001C6.13601 15.5594 4.00067 13.5001 4.00067 11.6901V5.00008L8.88264 2.5591ZM13.0906 8.41224C13.416 8.08681 13.416 7.55917 13.0906 7.23373C12.7651 6.90829 12.2375 6.90829 11.9121 7.23373L9.50132 9.64448L8.59058 8.73373C8.26514 8.40829 7.7375 8.40829 7.41207 8.73373C7.08663 9.05917 7.08663 9.58681 7.41207 9.91224L8.91207 11.4122C9.2375 11.7377 9.76514 11.7377 10.0906 11.4122L13.0906 8.41224Z" fill="white"/>
</svg>
