<svg width="21" height="20" viewBox="0 0 21 20" fill="none" xmlns="http://www.w3.org/2000/svg">
<path d="M10.7334 7.91667H12.4V5.41667H14.9V3.75H12.4V1.25H10.7334V3.75H8.23336V5.41667H10.7334V7.91667ZM7.40002 15.4167C6.48336 15.4167 5.74169 16.1667 5.74169 17.0833C5.74169 18 6.48336 18.75 7.40002 18.75C8.31669 18.75 9.06669 18 9.06669 17.0833C9.06669 16.1667 8.31669 15.4167 7.40002 15.4167ZM15.7334 15.4167C14.8167 15.4167 14.075 16.1667 14.075 17.0833C14.075 18 14.8167 18.75 15.7334 18.75C16.65 18.75 17.4 18 17.4 17.0833C17.4 16.1667 16.65 15.4167 15.7334 15.4167ZM8.31669 11.25H14.525C15.15 11.25 15.7 10.9083 15.9834 10.3917L19.2 4.55L17.75 3.75L14.525 9.58333H8.67502L5.12502 2.08333H2.40002V3.75H4.06669L7.06669 10.075L5.94169 12.1083C5.33336 13.225 6.13336 14.5833 7.40002 14.5833H17.4V12.9167H7.40002L8.31669 11.25Z" fill="#4D5761"/>
</svg>
