<svg width="21" height="20" viewBox="0 0 21 20" fill="none" xmlns="http://www.w3.org/2000/svg">
<path d="M16.2 11.4048C17.2561 12.1939 18.2 14.1806 18.2 15.4047C18.2 15.7861 17.9218 16.0953 17.5785 16.0953H17.2M13.2 8.17043C13.8832 7.77522 14.3429 7.03654 14.3429 6.1905C14.3429 5.34446 13.8832 4.60578 13.2 4.21057M2.82149 16.0953H13.769C14.1122 16.0953 14.3905 15.7861 14.3905 15.4047C14.3905 13.0076 12.3878 11.0643 8.29525 11.0643C4.20273 11.0643 2.20001 13.0076 2.20001 15.4047C2.20001 15.7861 2.47826 16.0953 2.82149 16.0953ZM10.581 6.1905C10.581 7.45286 9.55761 8.47621 8.29525 8.47621C7.03288 8.47621 6.00954 7.45286 6.00954 6.1905C6.00954 4.92813 7.03288 3.90479 8.29525 3.90479C9.55761 3.90479 10.581 4.92813 10.581 6.1905Z" stroke="#4D5761" stroke-width="2" stroke-linecap="round"/>
</svg>
