<svg width="20" height="20" viewBox="0 0 20 20" fill="none" xmlns="http://www.w3.org/2000/svg">
<path d="M16.7 1.2C16.7 0.537258 16.1627 0 15.5 0C14.8373 0 14.3 0.537258 14.3 1.2V2.94C14.3 3.13882 14.1388 3.3 13.94 3.3L12.2 3.3C11.5373 3.3 11 3.83726 11 4.5C11 5.16274 11.5373 5.7 12.2 5.7H13.94C14.1388 5.7 14.3 5.86118 14.3 6.06V7.8C14.3 8.46274 14.8373 9 15.5 9C16.1627 9 16.7 8.46274 16.7 7.8V6.06C16.7 5.86118 16.8612 5.7 17.06 5.7H18.8C19.4627 5.7 20 5.16274 20 4.5C20 3.83726 19.4627 3.3 18.8 3.3H17.06C16.8612 3.3 16.7 3.13882 16.7 2.94V1.2Z" fill="#4D5761"/>
<path d="M9 5C9 6.71523 9.71973 8.26236 10.8737 9.35585C10.2728 10.3235 9.21041 10.9999 8 10.9999C6.12558 10.9999 4.60606 9.37779 4.60606 7.56411C4.60606 5.75042 6.12558 4 8 4C8.36804 4 8.72239 4.06748 9.05425 4.18968C9.01848 4.45469 9 4.72519 9 5Z" fill="#4D5761"/>
<path d="M16 16.2469C16 18.3197 13.5758 20 8 20C2.42424 20 0 18.3197 0 16.2469C0 14.1741 3.58172 12.4938 8 12.4938C12.4183 12.4938 16 14.1741 16 16.2469Z" fill="#4D5761"/>
</svg>
