<svg width="21" height="20" viewBox="0 0 21 20" fill="none" xmlns="http://www.w3.org/2000/svg">
<path fill-rule="evenodd" clip-rule="evenodd" d="M1.375 5.00008C1.375 2.81395 3.14721 1.04175 5.33333 1.04175H15.3333C17.5195 1.04175 19.2917 2.81395 19.2917 5.00008V15.0001C19.2917 17.1862 17.5195 18.9584 15.3333 18.9584H5.33333C3.14721 18.9584 1.375 17.1862 1.375 15.0001V5.00008ZM5.33333 2.29175C3.83756 2.29175 2.625 3.50431 2.625 5.00008V12.0834L4.72627 13.4843C6.04835 14.3656 7.80875 14.1913 8.93229 13.0678L11.7344 10.2657C12.8579 9.14216 14.6183 8.96785 15.9404 9.84923L17.9245 11.172C17.965 11.199 18.0041 11.2276 18.0417 11.2577V5.00008C18.0417 3.50431 16.8291 2.29175 15.3333 2.29175H5.33333ZM7.41667 9.16675C8.56726 9.16675 9.5 8.23401 9.5 7.08342C9.5 5.93282 8.56726 5.00008 7.41667 5.00008C6.26607 5.00008 5.33333 5.93282 5.33333 7.08342C5.33333 8.23401 6.26607 9.16675 7.41667 9.16675Z" fill="#FBA94B"/>
</svg>
