<svg width="20" height="20" viewBox="0 0 20 20" fill="none" xmlns="http://www.w3.org/2000/svg">
<path d="M2.90717 15.5634C2.61428 15.8563 2.61428 16.3312 2.90717 16.6241C3.20006 16.917 3.67494 16.917 3.96783 16.6241L2.90717 15.5634ZM7.1875 12.3438L7.71783 11.8134C7.42494 11.5205 6.95006 11.5205 6.65717 11.8134L7.1875 12.3438ZM9.0625 14.2188L8.53217 14.7491C8.82506 15.042 9.29994 15.042 9.59283 14.7491L9.0625 14.2188ZM13.2812 10L13.8116 9.46967C13.5187 9.17678 13.0438 9.17678 12.7509 9.46967L13.2812 10ZM16.5009 14.2803C16.7938 14.5732 17.2687 14.5732 17.5616 14.2803C17.8545 13.9874 17.8545 13.5126 17.5616 13.2197L16.5009 14.2803ZM3.96783 16.6241L7.71783 12.8741L6.65717 11.8134L2.90717 15.5634L3.96783 16.6241ZM6.65717 12.8741L8.53217 14.7491L9.59283 13.6884L7.71783 11.8134L6.65717 12.8741ZM9.59283 14.7491L13.8116 10.5303L12.7509 9.46967L8.53217 13.6884L9.59283 14.7491ZM12.7509 10.5303L16.5009 14.2803L17.5616 13.2197L13.8116 9.46967L12.7509 10.5303ZM5.3125 3.25H14.6875V1.75H5.3125V3.25ZM16.75 5.3125V14.6875H18.25V5.3125H16.75ZM14.6875 16.75H5.3125V18.25H14.6875V16.75ZM3.25 14.6875V5.3125H1.75V14.6875H3.25ZM5.3125 16.75C4.17341 16.75 3.25 15.8266 3.25 14.6875H1.75C1.75 16.655 3.34499 18.25 5.3125 18.25V16.75ZM16.75 14.6875C16.75 15.8266 15.8266 16.75 14.6875 16.75V18.25C16.655 18.25 18.25 16.655 18.25 14.6875H16.75ZM14.6875 3.25C15.8266 3.25 16.75 4.17341 16.75 5.3125H18.25C18.25 3.34499 16.655 1.75 14.6875 1.75V3.25ZM5.3125 1.75C3.34499 1.75 1.75 3.34499 1.75 5.3125H3.25C3.25 4.17341 4.17341 3.25 5.3125 3.25V1.75ZM7.375 6.71875C7.375 7.08119 7.08119 7.375 6.71875 7.375V8.875C7.90961 8.875 8.875 7.90961 8.875 6.71875H7.375ZM6.71875 7.375C6.35631 7.375 6.0625 7.08119 6.0625 6.71875H4.5625C4.5625 7.90961 5.52789 8.875 6.71875 8.875V7.375ZM6.0625 6.71875C6.0625 6.35631 6.35631 6.0625 6.71875 6.0625V4.5625C5.52789 4.5625 4.5625 5.52789 4.5625 6.71875H6.0625ZM6.71875 6.0625C7.08119 6.0625 7.375 6.35631 7.375 6.71875H8.875C8.875 5.52789 7.90961 4.5625 6.71875 4.5625V6.0625Z" fill="#4D5761"/>
</svg>
