<svg width="21" height="20" viewBox="0 0 21 20" fill="none" xmlns="http://www.w3.org/2000/svg">
<path fill-rule="evenodd" clip-rule="evenodd" d="M10.6667 18.3334C15.2691 18.3334 19 14.6025 19 10.0001C19 5.39771 15.2691 1.66675 10.6667 1.66675C6.06433 1.66675 2.33337 5.39771 2.33337 10.0001C2.33337 14.6025 6.06433 18.3334 10.6667 18.3334ZM8.57884 12.0302C8.32079 11.8038 7.92799 11.8279 7.69958 12.0849C7.47026 12.3429 7.4935 12.7379 7.75149 12.9672L7.9807 13.1434C8.11597 13.2375 8.31007 13.3589 8.55811 13.4791C9.05422 13.7197 9.77234 13.9584 10.6667 13.9584C11.5611 13.9584 12.2792 13.7197 12.7753 13.4791C13.0234 13.3589 13.2175 13.2375 13.3527 13.1434C13.4205 13.0962 13.4738 13.0557 13.5121 13.0253L13.5819 12.9672C13.8399 12.7379 13.8632 12.3429 13.6338 12.0849C13.4054 11.8279 13.0126 11.8038 12.7546 12.0302L12.6389 12.1172C12.5496 12.1794 12.4116 12.2663 12.23 12.3544C11.8667 12.5305 11.3348 12.7084 10.6667 12.7084C9.99858 12.7084 9.46671 12.5305 9.10345 12.3544C8.9218 12.2663 8.78386 12.1794 8.69453 12.1172L8.57884 12.0302ZM14.8334 8.33342C14.8334 8.79365 14.4603 9.16675 14 9.16675C13.5398 9.16675 13.1667 8.79365 13.1667 8.33342C13.1667 7.87318 13.5398 7.50008 14 7.50008C14.4603 7.50008 14.8334 7.87318 14.8334 8.33342ZM7.33337 9.16675C7.79361 9.16675 8.16671 8.79365 8.16671 8.33342C8.16671 7.87318 7.79361 7.50008 7.33337 7.50008C6.87314 7.50008 6.50004 7.87318 6.50004 8.33342C6.50004 8.79365 6.87314 9.16675 7.33337 9.16675Z" fill="#24BEAC"/>
</svg>
