<svg width="35" height="30" viewBox="0 0 35 30" fill="none" xmlns="http://www.w3.org/2000/svg">
<path fill-rule="evenodd" clip-rule="evenodd" d="M17.5 29.5C27.165 29.5 35 23.0081 35 15C35 6.99187 27.165 0.5 17.5 0.5C7.83502 0.5 0 6.99187 0 15C0 23.0081 7.83502 29.5 17.5 29.5ZM9 18.25C10.3807 18.25 11.5 17.1307 11.5 15.75C11.5 14.3693 10.3807 13.25 9 13.25C7.61929 13.25 6.5 14.3693 6.5 15.75C6.5 17.1307 7.61929 18.25 9 18.25ZM20 15.75C20 17.1307 18.8807 18.25 17.5 18.25C16.1193 18.25 15 17.1307 15 15.75C15 14.3693 16.1193 13.25 17.5 13.25C18.8807 13.25 20 14.3693 20 15.75ZM26 18.25C27.3807 18.25 28.5 17.1307 28.5 15.75C28.5 14.3693 27.3807 13.25 26 13.25C24.6193 13.25 23.5 14.3693 23.5 15.75C23.5 17.1307 24.6193 18.25 26 18.25Z" fill="white"/>
</svg>
