<svg width="21" height="20" viewBox="0 0 21 20" fill="none" xmlns="http://www.w3.org/2000/svg">
<path fill-rule="evenodd" clip-rule="evenodd" d="M12 5.83333C12 7.67428 10.5077 9.16667 8.66671 9.16667C6.82576 9.16667 5.33337 7.67428 5.33337 5.83333C5.33337 3.99238 6.82576 2.5 8.66671 2.5C10.5077 2.5 12 3.99238 12 5.83333ZM14.5 14.1667C14.5 16.0076 11.8884 17.5 8.66671 17.5C5.44505 17.5 2.83337 16.0076 2.83337 14.1667C2.83337 12.3257 5.44505 10.8333 8.66671 10.8333C11.8884 10.8333 14.5 12.3257 14.5 14.1667ZM15.3334 10.625C14.9882 10.625 14.7084 10.3452 14.7084 10L14.7084 8.95833H13.6667C13.3215 8.95833 13.0417 8.67851 13.0417 8.33333C13.0417 7.98816 13.3215 7.70833 13.6667 7.70833H14.7084V6.66667C14.7084 6.32149 14.9882 6.04167 15.3334 6.04167C15.6786 6.04167 15.9584 6.32149 15.9584 6.66667V7.70833H17C17.3452 7.70833 17.625 7.98816 17.625 8.33333C17.625 8.67851 17.3452 8.95833 17 8.95833H15.9584V10C15.9584 10.3452 15.6786 10.625 15.3334 10.625Z" fill="#8981DA"/>
</svg>
